<svg xmlns="http://www.w3.org/2000/svg" xmlns:svg="http://www.w3.org/2000/svg" id="svg837" width="1245" height="752" version="1.1" viewBox="0 0 1245 752"><rect id="sign-fill" width="1168.725" height="426.566" x="95.836" y="133.442" fill="#f18594" transform="rotate(8.4)" style="fill-rule:evenodd;stroke:none;stroke-width:1"/><path id="sign-shadow" fill="#ea5b6f" d="m 77,147 676,100.5 c 0,0 -46.74735,44.03173 -154,76.5 -107.25265,32.46827 -179.5,15 -276,68.5 -122.90378,68.13837 -183.5,198 -183.5,198 L 15,570 Z" style="fill-rule:evenodd;stroke:none;stroke-width:1"/><rect id="sign-border" width="1182.324" height="440" x="89.234" y="126.942" stroke="#221f1f" stroke-width="20" rx="45" transform="rotate(8.4)" style="fill:none;fill-rule:evenodd"/><g id="sign-text" aria-label="CLOSED" transform="rotate(8.4)" style="font-weight:700;font-size:305px;font-family:MyriadPro-Bold,'Myriad Pro';letter-spacing:-.1;fill-rule:evenodd"><path id="path942" d="m 302.55031,401.9906 c -9.455,3.965 -24.705,6.71 -39.04,6.71 -41.175,0 -65.575,-25.925 -65.575,-67.1 0,-45.75 28.67,-68.015 65.27,-68.015 16.775,0 29.89,3.66 39.04,7.625 l 9.76,-36.6 c -8.235,-4.575 -26.535,-9.15 -50.63,-9.15 -62.22,0 -112.24,38.735 -112.24,108.885 0,58.56 36.6,103.09 107.665,103.09 24.705,0 44.225,-4.88 52.46,-8.845 z"/><path id="path944" d="m 340.48476,444.0806 h 128.1 v -39.04 h -81.74 v -166.53 h -46.36 z"/><path id="path946" d="m 575.42061,234.8506 c -60.39,0 -100.04,46.055 -100.04,107.665 0,58.865 35.99,104.92 96.685,104.92 60.39,0 100.955,-40.565 100.955,-108.275 0,-57.035 -34.465,-104.31 -97.6,-104.31 z m -0.915,36.905 c 32.025,0 49.41,31.72 49.41,68.93 0,39.955 -17.995,69.845 -49.41,69.845 -31.11,0 -50.02,-28.365 -50.02,-68.93 0,-39.955 18.3,-69.845 50.02,-69.845 z"/><path id="path948" d="m 695.42868,434.3206 c 11.59,6.405 34.77,12.81 58.255,12.81 56.425,0 82.655,-29.28 82.655,-63.745 0,-28.975 -16.775,-47.885 -53.07,-61.305 -26.84,-10.065 -38.125,-15.86 -38.125,-28.975 0,-10.37 9.76,-19.825 29.89,-19.825 19.825,0 34.77,5.795 42.7,9.76 l 10.37,-37.21 c -12.2,-5.795 -28.975,-10.37 -52.46,-10.37 -48.19,0 -77.775,26.535 -77.775,61.61 0,29.89 22.57,48.8 56.73,61 24.705,8.54 34.465,15.86 34.465,28.67 0,13.42 -11.285,22.265 -32.635,22.265 -19.825,0 -39.345,-6.405 -51.545,-12.81 z"/><path id="path950" d="m 989.97771,319.3356 h -75.64 v -42.7 h 80.215 v -38.125 h -126.575 v 205.57 h 130.845 v -38.125 h -84.485 v -48.8 h 75.64 z"/><path id="path952" d="m 1030.0853,443.1656 c 11.285,1.525 28.67,3.05 52.765,3.05 40.26,0 73.505,-8.54 95.16,-26.535 19.52,-16.775 33.855,-43.92 33.855,-83.265 0,-36.295 -13.42,-61.61 -34.77,-77.47 -19.52,-14.64 -45.14,-21.96 -84.485,-21.96 -23.18,0 -45.445,1.83 -62.525,4.575 z m 46.36,-168.665 c 3.965,-0.915 10.98,-1.83 21.045,-1.83 40.26,0 65.27,22.57 65.27,65.27 0,49.105 -27.755,72.285 -70.15,71.98 -5.49,0 -12.2,0 -16.165,-0.915 z"/></g><path id="line-left" stroke="#221f1f" stroke-linecap="square" stroke-width="20" d="M 652,21 179,150" style="fill:none;fill-rule:evenodd"/><path id="line-right" stroke="#221f1f" stroke-linecap="square" stroke-width="20" d="m 716,33 436,261" style="fill:none;fill-rule:evenodd"/><circle id="pin" cx="679" cy="53" r="42" fill="#a8b5d7" stroke="#221f1f" stroke-width="22" style="fill-rule:evenodd"/></svg>