<svg xmlns="http://www.w3.org/2000/svg" xmlns:ns1="http://sozi.baierouge.fr" xmlns:svg="http://www.w3.org/2000/svg" xmlns:xlink="http://www.w3.org/1999/xlink" id="svg2" version="1.1" viewBox="0 0 204.35 204.35"><defs id="defs4"><filter id="filter3769" width="1.379" height="1.379" x="-.19" y="-.19" color-interpolation-filters="sRGB"><feGaussianBlur id="feGaussianBlur3771" stdDeviation="51.502"/></filter><filter id="filter3816" color-interpolation-filters="sRGB"><feGaussianBlur id="feGaussianBlur3818" stdDeviation="5.888"/></filter></defs><g id="layer1" transform="translate(-4.967 -20.186)"><g id="g3822" transform="matrix(.22740 0 0 .22740 29.826 11.048)"><path id="path2987" d="m777.14 649.51c0 179.89-145.83 325.71-325.71 325.71-179.89 0-325.71-145.83-325.71-325.71 0-179.89 145.83-325.71 325.71-325.71 179.89 0 325.71 145.83 325.71 325.71z" transform="translate(-111.43 -160)" style="filter:url(#filter3769);fill:#000"/><path id="path2985" d="m777.14 649.51c0 179.89-145.83 325.71-325.71 325.71-179.89 0-325.71-145.83-325.71-325.71 0-179.89 145.83-325.71 325.71-325.71 179.89 0 325.71 145.83 325.71 325.71z" transform="translate(-111.43 -160)" style="fill:#fff"/><path id="path3814" d="m288.87 240.94v301.01l-75.123-0.9551 64.85 93.466 64.822 93.488 68.505-91.778 68.505-91.8-75.123-0.9551v-302.48h-116.44z" style="filter:url(#filter3816);stroke:#000;stroke-width:10.2;fill:green"/><path id="rect3773" d="m288.87 240.94v301.01l-75.123-0.9551 64.85 93.466 64.822 93.488 68.505-91.778 68.505-91.8-75.123-0.9551v-302.48h-116.44z" style="fill:green"/><path id="path3820" d="m295.11 258.08v291.62l-67.075-0.85278 57.902 83.453 57.878 83.472 61.166-81.945 61.166-81.965-67.075-0.85277-2.8571-295.78z" style="opacity:.14545;fill:#fff"/></g></g><metadata/></svg>